<svg width="512" height="512" xmlns="http://www.w3.org/2000/svg">

 <g>
  <title>background</title>
  <rect fill="#efd81d" id="canvas_background" height="514" width="514" y="-1" x="-1"/>
 </g>
 <g>
  <title>Layer 1</title>
  <g id="svg_1">
   <g id="svg_2">
    <g id="svg_3">
     <path id="svg_4" d="m503.467,0l-494.934,0c-4.719,0 -8.533,3.823 -8.533,8.533l0,494.933c0,4.711 3.814,8.534 8.533,8.534l494.933,0c4.719,0 8.533,-3.823 8.533,-8.533l0,-494.934c0.001,-4.71 -3.813,-8.533 -8.532,-8.533zm-8.534,494.933l-477.866,0l0,-477.866l477.867,0l0,477.866l-0.001,0z"/>
     <path id="svg_5" d="m392.533,452.267c-32.93,0 -59.733,-26.795 -59.733,-59.733c0,-4.71 -3.814,-8.533 -8.533,-8.533c-4.719,0 -8.533,3.823 -8.533,8.533c0,42.342 34.449,76.8 76.8,76.8c42.351,0 76.8,-34.458 76.8,-76.8c0,-42.342 -34.449,-76.8 -76.8,-76.8c-32.93,0 -59.733,-26.795 -59.733,-59.733s26.803,-59.733 59.733,-59.733c32.93,0 59.733,26.795 59.733,59.733c0,4.71 3.814,8.533 8.533,8.533c4.719,0 8.533,-3.823 8.533,-8.533c0,-42.342 -34.449,-76.8 -76.8,-76.8c-42.351,0 -76.8,34.458 -76.8,76.8s34.449,76.8 76.8,76.8c32.93,0 59.733,26.795 59.733,59.733c0.001,32.938 -26.802,59.733 -59.733,59.733z"/>
     <path id="svg_6" d="m213.333,469.333c42.351,0 76.8,-34.458 76.8,-76.8l0,-204.8c0,-4.71 -3.814,-8.533 -8.533,-8.533c-4.719,0 -8.533,3.823 -8.533,8.533l0,204.8c0,32.939 -26.803,59.733 -59.733,59.733c-32.93,0 -59.733,-26.795 -59.733,-59.733c0,-4.71 -3.814,-8.533 -8.533,-8.533s-8.533,3.823 -8.533,8.533c-0.002,42.343 34.447,76.8 76.798,76.8z"/>
    </g>
   </g>
  </g>
  <g id="svg_7"/>
  <g id="svg_8"/>
  <g id="svg_9"/>
  <g id="svg_10"/>
  <g id="svg_11"/>
  <g id="svg_12"/>
  <g id="svg_13"/>
  <g id="svg_14"/>
  <g id="svg_15"/>
  <g id="svg_16"/>
  <g id="svg_17"/>
  <g id="svg_18"/>
  <g id="svg_19"/>
  <g id="svg_20"/>
  <g id="svg_21"/>
 </g>
</svg>